<svg xmlns="http://www.w3.org/2000/svg" xmlns:xlink="http://www.w3.org/1999/xlink" width="2000" zoomAndPan="magnify" viewBox="0 0 1500 1499.999933" height="2000" preserveAspectRatio="xMidYMid meet" version="1.0"><defs><clipPath id="27b988def8"><path d="M 506.15625 404 L 972 404 L 972 1077 L 506.15625 1077 Z M 506.15625 404 " clip-rule="nonzero"/></clipPath><clipPath id="ad3bff72bb"><path d="M 1 0.398438 L 465.761719 0.398438 L 465.761719 672 L 1 672 Z M 1 0.398438 " clip-rule="nonzero"/></clipPath><clipPath id="d971af97b2"><rect x="0" width="466" y="0" height="673"/></clipPath><clipPath id="71e35cf5d8"><path d="M 516.148438 414 L 982 414 L 982 1087 L 516.148438 1087 Z M 516.148438 414 " clip-rule="nonzero"/></clipPath><clipPath id="9d2a89cc3c"><path d="M 1 0.238281 L 465.839844 0.238281 L 465.839844 672 L 1 672 Z M 1 0.238281 " clip-rule="nonzero"/></clipPath><clipPath id="96b7836859"><rect x="0" width="466" y="0" height="673"/></clipPath><clipPath id="cbde014931"><path d="M 526.140625 424 L 992 424 L 992 1097 L 526.140625 1097 Z M 526.140625 424 " clip-rule="nonzero"/></clipPath><clipPath id="84a121deb3"><path d="M 1 0.320312 L 465.679688 0.320312 L 465.679688 672 L 1 672 Z M 1 0.320312 " clip-rule="nonzero"/></clipPath><clipPath id="be97d0028e"><rect x="0" width="466" y="0" height="673"/></clipPath></defs><g clip-path="url(#27b988def8)"><g transform="matrix(1, 0, 0, 1, 506, 404)"><g clip-path="url(#d971af97b2)"><g clip-path="url(#ad3bff72bb)"><path fill="#111111" d="M 454.320312 18.457031 C 461.613281 25.210938 465.3125 32.792969 465.625 41.644531 C 466.261719 60.128906 451.625 84.695312 419.511719 118.925781 C 367.121094 174.761719 280.933594 253.796875 218.757812 307.367188 L 218.105469 307.921875 L 217.5 307.320312 C 210.957031 300.84375 204.40625 293.964844 198.042969 286.882812 L 197.453125 286.226562 L 198.078125 285.601562 C 261.257812 222.457031 336.085938 141.859375 376.007812 93.964844 C 390.582031 76.472656 396.035156 64.816406 392.671875 58.328125 C 389.527344 52.265625 378.59375 50.085938 359.261719 51.664062 C 319.214844 54.929688 261.503906 67.386719 200.925781 85.84375 C 145.519531 102.722656 95.003906 122.460938 69.09375 137.363281 C 52.808594 146.730469 44.050781 156.519531 42.332031 167.289062 C 40.378906 179.484375 46.980469 193.542969 63.117188 211.515625 C 89.957031 241.421875 139.089844 287.394531 220.367188 361.761719 L 230.832031 371.335938 C 302.488281 436.886719 370.179688 498.804688 419.53125 553.078125 C 443.035156 578.941406 456.582031 598.4375 462.167969 614.425781 C 467.808594 630.589844 465.097656 643.503906 453.886719 653.886719 C 435.488281 670.933594 402.847656 675.507812 354.101562 667.882812 C 306.972656 660.507812 244.933594 645.382812 188.148438 627.425781 C 122.492188 606.660156 69.265625 583.8125 38.265625 563.09375 C 16.1875 548.335938 4.21875 532.835938 1.675781 515.707031 C 1.335938 513.421875 1.167969 511.097656 1.167969 508.738281 C 1.167969 491.878906 9.839844 473.09375 27.492188 451.578125 C 50.238281 423.867188 84.390625 390.390625 109.039062 367.183594 L 109.675781 366.585938 L 110.308594 367.183594 C 117.140625 373.585938 123.929688 380.1875 130.492188 386.804688 L 131.148438 387.464844 L 130.488281 388.117188 C 103.738281 414.46875 69.453125 451.007812 53.425781 474.539062 C 43.851562 488.601562 40.480469 498.78125 42.492188 507.566406 C 44.613281 516.820312 53.0625 525.421875 69.078125 534.628906 C 94.988281 549.527344 145.507812 569.269531 200.914062 586.148438 C 261.492188 604.601562 319.207031 617.054688 359.246094 620.328125 C 378.359375 621.886719 389.582031 619.671875 392.589844 613.746094 C 395.613281 607.785156 390.703125 597.308594 377.992188 582.597656 C 347.949219 547.828125 283.066406 484.023438 225.828125 427.734375 C 219.484375 421.5 213.214844 415.335938 207.074219 409.289062 C 141.640625 344.871094 74.953125 278.941406 41.410156 242.558594 C 18.421875 217.632812 2.832031 195.75 1.488281 169.980469 C 0.230469 145.933594 11.910156 126.519531 38.257812 108.910156 C 69.257812 88.191406 122.484375 65.347656 188.140625 44.578125 C 244.921875 26.625 306.957031 11.496094 354.097656 4.117188 C 402.851562 -3.507812 435.636719 1.179688 454.3125 18.460938 Z M 454.320312 18.457031 " fill-opacity="1" fill-rule="nonzero"/></g></g></g></g><g clip-path="url(#71e35cf5d8)"><g transform="matrix(1, 0, 0, 1, 516, 414)"><g clip-path="url(#96b7836859)"><g clip-path="url(#9d2a89cc3c)"><path fill="#111111" d="M 454.3125 18.449219 C 461.605469 25.203125 465.304688 32.785156 465.617188 41.636719 C 466.253906 60.121094 451.617188 84.6875 419.503906 118.917969 C 367.113281 174.753906 280.925781 253.789062 218.75 307.359375 L 218.097656 307.914062 L 217.492188 307.3125 C 210.949219 300.835938 204.398438 293.957031 198.035156 286.875 L 197.445312 286.21875 L 198.070312 285.59375 C 261.25 222.449219 336.078125 141.851562 376 93.957031 C 390.574219 76.464844 396.027344 64.808594 392.664062 58.320312 C 389.519531 52.257812 378.585938 50.078125 359.253906 51.65625 C 319.207031 54.921875 261.496094 67.378906 200.917969 85.835938 C 145.511719 102.714844 94.996094 122.453125 69.085938 137.355469 C 52.800781 146.722656 44.042969 156.511719 42.324219 167.28125 C 40.371094 179.476562 46.972656 193.535156 63.109375 211.507812 C 89.949219 241.414062 139.082031 287.386719 220.359375 361.753906 L 230.824219 371.328125 C 302.480469 436.878906 370.171875 498.792969 419.523438 553.070312 C 443.027344 578.933594 456.574219 598.429688 462.160156 614.417969 C 467.800781 630.582031 465.089844 643.496094 453.878906 653.878906 C 435.480469 670.925781 402.839844 675.5 354.09375 667.875 C 306.964844 660.5 244.925781 645.375 188.140625 627.417969 C 122.484375 606.652344 69.257812 583.804688 38.257812 563.085938 C 16.179688 548.328125 4.210938 532.828125 1.667969 515.699219 C 1.328125 513.414062 1.160156 511.089844 1.160156 508.730469 C 1.160156 491.871094 9.832031 473.085938 27.484375 451.570312 C 50.230469 423.859375 84.382812 390.382812 109.03125 367.175781 L 109.667969 366.578125 L 110.300781 367.175781 C 117.132812 373.578125 123.921875 380.179688 130.484375 386.796875 L 131.140625 387.457031 L 130.480469 388.109375 C 103.730469 414.460938 69.445312 451 53.417969 474.53125 C 43.84375 488.59375 40.472656 498.773438 42.484375 507.558594 C 44.605469 516.8125 53.054688 525.414062 69.070312 534.621094 C 94.980469 549.519531 145.5 569.261719 200.90625 586.140625 C 261.484375 604.589844 319.199219 617.046875 359.238281 620.320312 C 378.351562 621.878906 389.574219 619.664062 392.582031 613.738281 C 395.605469 607.777344 390.695312 597.300781 377.984375 582.589844 C 347.941406 547.820312 283.058594 484.015625 225.820312 427.726562 C 219.476562 421.492188 213.207031 415.328125 207.066406 409.28125 C 141.632812 344.863281 74.945312 278.933594 41.402344 242.550781 C 18.414062 217.625 2.824219 195.742188 1.480469 169.972656 C 0.222656 145.925781 11.902344 126.511719 38.25 108.902344 C 69.25 88.183594 122.476562 65.339844 188.132812 44.570312 C 244.914062 26.617188 306.949219 11.488281 354.089844 4.109375 C 402.84375 -3.515625 435.628906 1.171875 454.304688 18.453125 Z M 454.3125 18.449219 " fill-opacity="1" fill-rule="nonzero"/></g></g></g></g><g clip-path="url(#cbde014931)"><g transform="matrix(1, 0, 0, 1, 526, 424)"><g clip-path="url(#be97d0028e)"><g clip-path="url(#84a121deb3)"><path fill="#111111" d="M 454.304688 18.441406 C 461.597656 25.195312 465.296875 32.777344 465.609375 41.628906 C 466.246094 60.113281 451.609375 84.679688 419.496094 118.910156 C 367.105469 174.746094 280.917969 253.78125 218.738281 307.351562 L 218.089844 307.90625 L 217.484375 307.304688 C 210.941406 300.828125 204.390625 293.949219 198.027344 286.867188 L 197.4375 286.210938 L 198.0625 285.585938 C 261.242188 222.441406 336.070312 141.84375 375.992188 93.949219 C 390.566406 76.457031 396.019531 64.800781 392.65625 58.3125 C 389.511719 52.25 378.578125 50.070312 359.246094 51.648438 C 319.199219 54.914062 261.488281 67.371094 200.910156 85.828125 C 145.503906 102.707031 94.988281 122.445312 69.078125 137.347656 C 52.792969 146.714844 44.035156 156.503906 42.316406 167.273438 C 40.363281 179.46875 46.964844 193.527344 63.101562 211.5 C 89.941406 241.40625 139.074219 287.378906 220.351562 361.746094 L 230.816406 371.320312 C 302.472656 436.871094 370.164062 498.789062 419.515625 553.0625 C 443.019531 578.925781 456.566406 598.421875 462.152344 614.410156 C 467.792969 630.574219 465.082031 643.488281 453.871094 653.871094 C 435.472656 670.917969 402.832031 675.492188 354.085938 667.867188 C 306.957031 660.492188 244.917969 645.367188 188.132812 627.410156 C 122.476562 606.644531 69.25 583.796875 38.25 563.078125 C 16.171875 548.320312 4.203125 532.820312 1.660156 515.691406 C 1.320312 513.40625 1.152344 511.082031 1.152344 508.722656 C 1.152344 491.863281 9.824219 473.078125 27.476562 451.5625 C 50.222656 423.851562 84.375 390.375 109.023438 367.167969 L 109.660156 366.570312 L 110.292969 367.167969 C 117.125 373.570312 123.914062 380.171875 130.476562 386.789062 L 131.132812 387.449219 L 130.472656 388.101562 C 103.722656 414.453125 69.4375 450.992188 53.410156 474.523438 C 43.835938 488.585938 40.464844 498.765625 42.476562 507.550781 C 44.597656 516.804688 53.046875 525.40625 69.0625 534.613281 C 94.972656 549.511719 145.492188 569.253906 200.898438 586.132812 C 261.476562 604.582031 319.191406 617.039062 359.230469 620.3125 C 378.34375 621.871094 389.566406 619.65625 392.574219 613.730469 C 395.597656 607.769531 390.6875 597.292969 377.976562 582.582031 C 347.933594 547.8125 283.050781 484.007812 225.8125 427.71875 C 219.46875 421.484375 213.199219 415.320312 207.058594 409.273438 C 141.625 344.855469 74.9375 278.925781 41.394531 242.542969 C 18.40625 217.617188 2.816406 195.734375 1.472656 169.964844 C 0.214844 145.917969 11.894531 126.503906 38.242188 108.894531 C 69.242188 88.175781 122.46875 65.332031 188.125 44.5625 C 244.90625 26.609375 306.941406 11.480469 354.082031 4.101562 C 402.835938 -3.523438 435.621094 1.164062 454.296875 18.445312 Z M 454.304688 18.441406 " fill-opacity="1" fill-rule="nonzero"/></g></g></g></g></svg>